arm26_states
version=1
nRows=34
nColumns=17
inDegrees=yes

# SIMM Motion File Header:
name arm26_states
datacolumns 17
datarows 34
otherdata 1
range 0.00000000 0.09644560
endheader
time	r_shoulder_elev	r_elbow_flex	r_shoulder_elev_u	r_elbow_flex_u	TRIlong.activation	TRIlong.fiber_length	TRIlat.activation	TRIlat.fiber_length	TRImed.activation	TRImed.fiber_length	BIClong.activation	BIClong.fiber_length	BICshort.activation	BICshort.fiber_length	BRA.activation	BRA.fiber_length
      0.00000000	      0.00000000	      0.00000000	      0.00000000	      0.00000000	      0.00000000	      0.13675721	      0.00000000	      0.07086738	      0.00000000	      0.06588666	      0.00000000	      0.14850826	      0.00000000	      0.14786332	      0.00000000	      0.09345467
      0.00100000	     -0.00027121	      0.00098882	     -0.54257861	      1.97822585	      0.00011287	      0.13675658	      0.00039549	      0.07086573	      0.00039549	      0.06588527	      0.00073960	      0.14850560	      0.00046342	      0.14786084	      0.00038285	      0.09345342
      0.00341811	     -0.00317172	      0.01156797	     -1.85675674	      6.77486595	      0.00029072	      0.13675374	      0.00119201	      0.07085545	      0.00119201	      0.06587622	      0.00282377	      0.14848882	      0.00149986	      0.14784464	      0.00114201	      0.09344677
      0.00583622	     -0.00924222	      0.03374063	     -3.16165234	     11.55983781	      0.00035754	      0.13675319	      0.00180193	      0.07084483	      0.00180193	      0.06586730	      0.00525320	      0.14846623	      0.00243806	      0.14782449	      0.00170666	      0.09343775
      0.00950145	     -0.02440486	      0.08931282	     -5.10378708	     18.74882155	      0.00034770	      0.13675891	      0.00246388	      0.07083746	      0.00246388	      0.06586253	      0.00944839	      0.14842629	      0.00372878	      0.14779316	      0.00229249	      0.09342082
      0.01314444	     -0.04643524	      0.17048782	     -6.98156678	     25.79951822	      0.00032434	      0.13677071	      0.00296351	      0.07084234	      0.00296351	      0.06586970	      0.01423477	      0.14838077	      0.00501082	      0.14776033	      0.00275311	      0.09339812
      0.01678743	     -0.07521389	      0.27719817	     -8.81134745	     32.77684089	      0.00030199	      0.13678713	      0.00337415	      0.07085893	      0.00337415	      0.06588846	      0.01949925	      0.14833031	      0.00632604	      0.14772448	      0.00316292	      0.09337033
      0.01946748	     -0.10059543	      0.37186424	    -10.12561675	     37.86273181	      0.00028623	      0.13680206	      0.00362211	      0.07087860	      0.00362211	      0.06590949	      0.02355913	      0.14829087	      0.00729506	      0.14769616	      0.00341776	      0.09334471
      0.02214753	     -0.12947053	      0.48013051	    -11.41898181	     42.92777857	      0.00027109	      0.13681944	      0.00382344	      0.07090460	      0.00382344	      0.06593666	      0.02770653	      0.14825006	      0.00825209	      0.14766640	      0.00362131	      0.09331685
      0.02595562	     -0.17639789	      0.65725013	    -13.22008804	     50.08824402	      0.00025058	      0.13684844	      0.00405082	      0.07095213	      0.00405082	      0.06598548	      0.03370219	      0.14819023	      0.00959622	      0.14762166	      0.00384578	      0.09327116
      0.02911500	     -0.22048896	      0.82486000	    -14.68771763	     56.01432149	      0.00023459	      0.13687644	      0.00420717	      0.07100053	      0.00420717	      0.06603468	      0.03865730	      0.14813948	      0.01069677	      0.14758228	      0.00399445	      0.09322885
      0.03227439	     -0.26918048	      1.01117650	    -16.13180100	     61.92855679	      0.00021956	      0.13690810	      0.00434503	      0.07105662	      0.00434503	      0.06609138	      0.04356414	      0.14808807	      0.01178602	      0.14754073	      0.00412064	      0.09318104
      0.03543377	     -0.32240488	      1.21618073	    -17.55891024	     67.84912478	      0.00020543	      0.13694355	      0.00446833	      0.07112020	      0.00446833	      0.06615544	      0.04840072	      0.14803602	      0.01285991	      0.14749691	      0.00422762	      0.09312961
      0.03859315	     -0.38011036	      1.43989597	    -18.96730726	     73.76960157	      0.00019221	      0.13698288	      0.00457779	      0.07119123	      0.00457779	      0.06622683	      0.05308012	      0.14798353	      0.01390110	      0.14745084	      0.00431199	      0.09307227
      0.04139896	     -0.43507266	      1.65427578	    -20.20891958	     79.04474962	      0.00018119	      0.13702118	      0.00466626	      0.07126056	      0.00466626	      0.06629640	      0.05713295	      0.14793658	      0.01480439	      0.14740801	      0.00437248	      0.09301880
      0.04420478	     -0.49350375	      1.88346939	    -21.43937961	     84.32724416	      0.00017082	      0.13706274	      0.00474466	      0.07133580	      0.00474466	      0.06637176	      0.06105418	      0.14788920	      0.01567802	      0.14736328	      0.00441507	      0.09296056
      0.04701059	     -0.55537721	      2.12750911	    -22.66348045	     89.62918014	      0.00016107	      0.13710764	      0.00481057	      0.07141703	      0.00481057	      0.06645300	      0.06480265	      0.14784149	      0.01651116	      0.14731669	      0.00443451	      0.09289947
      0.04981641	     -0.62067541	      2.38644722	    -23.88027099	     94.94573094	      0.00015191	      0.13715598	      0.00486694	      0.07150426	      0.00486694	      0.06654016	      0.06841881	      0.14779334	      0.01731327	      0.14726815	      0.00443693	      0.09283417
      0.05350405	     -0.71167587	      2.74950408	    -25.47420814	    101.96884056	      0.00014071	      0.13722490	      0.00493097	      0.07162800	      0.00493097	      0.06666372	      0.07290590	      0.14772914	      0.01830828	      0.14720115	      0.00443164	      0.09274375
      0.05598086	     -0.77609107	      3.00792028	    -26.53974188	    106.70135320	      0.00013369	      0.13727475	      0.00496956	      0.07171700	      0.00496956	      0.06675256	      0.07573143	      0.14768545	      0.01893556	      0.14715405	      0.00442444	      0.09267829
      0.05845768	     -0.84314512	      3.27808496	    -27.60551166	    111.45666969	      0.00012706	      0.13732751	      0.00500553	      0.07181071	      0.00500553	      0.06684609	      0.07844186	      0.14764114	      0.01953775	      0.14710513	      0.00441451	      0.09261093
      0.06182473	     -0.93853059	      3.66428462	    -29.05207063	    117.94699659	      0.00011864	      0.13740402	      0.00505371	      0.07194572	      0.00505371	      0.06698079	      0.08187236	      0.14757972	      0.02030103	      0.14703551	      0.00439767	      0.09251398
      0.06449527	     -1.01764804	      3.98616992	    -30.20033352	    123.12120845	      0.00011240	      0.13746875	      0.00509267	      0.07205914	      0.00509267	      0.06709396	      0.08438121	      0.14752999	      0.02086025	      0.14697767	      0.00438214	      0.09243410
      0.06716581	     -1.09983103	      4.32189554	    -31.34715825	    128.30966967	      0.00010655	      0.13753712	      0.00513218	      0.07217820	      0.00513218	      0.06721274	      0.08674536	      0.14747915	      0.02138791	      0.14691731	      0.00436484	      0.09234990
      0.06983635	     -1.18507756	      4.67150178	    -32.49533730	    133.51815548	      0.00010104	      0.13760922	      0.00517301	      0.07230298	      0.00517301	      0.06733722	      0.08891563	      0.14742702	      0.02187235	      0.14685430	      0.00434622	      0.09226316
      0.07304407	     -1.29152453	      5.10984604	    -33.87278637	    139.78729298	      0.00009488	      0.13770083	      0.00522398	      0.07246050	      0.00522398	      0.06749434	      0.09127422	      0.14736259	      0.02239855	      0.14677498	      0.00432245	      0.09215336
      0.07542931	     -1.37354239	      5.44884697	    -34.89867780	    144.46391867	      0.00009058	      0.13777260	      0.00526286	      0.07258314	      0.00526286	      0.06761669	      0.09289153	      0.14731318	      0.02275914	      0.14671323	      0.00430384	      0.09206997
      0.07781455	     -1.45800488	      5.79900445	    -35.92209325	    149.14025466	      0.00008653	      0.13784750	      0.00530157	      0.07271051	      0.00530157	      0.06774374	      0.09435796	      0.14726232	      0.02308498	      0.14664900	      0.00428421	      0.09198279
      0.08108619	     -1.57782378	      6.29743698	    -37.32480204	    155.55951229	      0.00008133	      0.13795540	      0.00535375	      0.07289300	      0.00535375	      0.06792575	      0.09613003	      0.14719007	      0.02347637	      0.14655673	      0.00425547	      0.09185977
      0.08435784	     -1.70222463	      6.81685997	    -38.72083142	    161.96473745	      0.00007652	      0.13806940	      0.00540517	      0.07308464	      0.00540517	      0.06811688	      0.09768670	      0.14711453	      0.02381775	      0.14645927	      0.00422485	      0.09173051
      0.08667604	     -1.79313261	      7.19758527	    -39.70817915	    166.49896477	      0.00007334	      0.13815393	      0.00544143	      0.07322602	      0.00544143	      0.06825789	      0.09862812	      0.14705881	      0.02402206	      0.14638690	      0.00420249	      0.09163762
      0.08899425	     -1.88632256	      7.58880115	    -40.68922073	    171.01409396	      0.00007034	      0.13824157	      0.00547764	      0.07337200	      0.00547764	      0.06840349	      0.09944560	      0.14700114	      0.02419754	      0.14631169	      0.00417976	      0.09154115
      0.09271992	     -2.04083718	      8.23940418	    -42.25412032	    178.23117595	      0.00006585	      0.13838895	      0.00553552	      0.07361624	      0.00553552	      0.06864703	      0.10055314	      0.14690399	      0.02443152	      0.14618450	      0.00414248	      0.09138159
      0.09644560	     -2.20114514	      8.91676925	    -43.79738455	    185.37431987	      0.00006176	      0.13854456	      0.00559046	      0.07387263	      0.00559046	      0.06890272	      0.10136541	      0.14680077	      0.02459606	      0.14604908	      0.00410415	      0.09121546
